<svg xmlns="http://www.w3.org/2000/svg" width="18" height="17.988" viewBox="0 0 18 17.988">
  <path id="design-icon" d="M19.6,5.025a3.266,3.266,0,0,0-2.319.95L14.009,9.249l-.884-.884a.708.708,0,0,0-.158-.158L11.239,6.478a.708.708,0,0,0-.158-.158L10.264,5.5a1.666,1.666,0,0,0-2.321,0L5.49,7.957a1.666,1.666,0,0,0,0,2.321l3.745,3.745L6.858,16.4a.708.708,0,0,0-.088.108,2.276,2.276,0,0,0-.319.593l-.008.028L5.027,22.035a.708.708,0,0,0,.876.876L10.81,21.5l-.025.006a1.619,1.619,0,0,0,.754-.422L21.963,10.656l.011-.012a3.357,3.357,0,0,0-.011-4.668l-.012-.011A3.4,3.4,0,0,0,19.6,5.025ZM9.1,6.408c.048,0,.1.032.159.1l.4.4-.207.207a.708.708,0,1,0,1,1L10.66,7.9l.886.886-.207.207a.708.708,0,1,0,1,1l.207-.207.462.462-2.773,2.773L6.491,9.277c-.127-.127-.127-.193,0-.32L8.944,6.5C9.008,6.44,9.056,6.408,9.1,6.408Zm10.5.032a1.98,1.98,0,0,1,1.359.543,1.941,1.941,0,0,1-.017,2.684l-.9.9L17.368,7.891l.915-.915A1.862,1.862,0,0,1,19.608,6.441Zm-3.24,2.451,2.679,2.679L10.538,20.08a.208.208,0,0,1-.1.05l-.025.006L6.743,21.2l1.051-3.647h0c0-.007.059-.105.123-.207Zm3.284,6-1,1-.726.726a.989.989,0,0,0,.519.189.709.709,0,0,0,.519-.189l.207-.207.868.868-.207.207a.708.708,0,1,0,1,1l.207-.207.49.49c.127.127.127.193,0,.321l-2.453,2.453c-.127.127-.193.127-.321,0l-2.877-2.877-1,1,2.877,2.877a1.667,1.667,0,0,0,2.322,0l2.453-2.453a1.667,1.667,0,0,0,0-2.322l-.912-.912a.708.708,0,0,0-.158-.158Z" transform="translate(-5 -5.025)" fill="#94a3b8"/>
</svg>
