<svg xmlns="http://www.w3.org/2000/svg" width="260.122" height="26.076" viewBox="0 0 260.122 26.076">
  <path id="logo-identity" d="M4.5,8.535a2.337,2.337,0,0,0,.562,1.589,1.741,1.741,0,0,0,1.349.651H25.737a5.8,5.8,0,0,1,4.541,2.178,7.79,7.79,0,0,1,1.884,5.274v.363a7.8,7.8,0,0,1-1.884,5.26,5.782,5.782,0,0,1-4.541,2.185H1.463a.145.145,0,0,1-.123-.068.27.27,0,0,1-.055-.171V21.782a.284.284,0,0,1,.055-.171.166.166,0,0,1,.123-.062H25.744a1.731,1.731,0,0,0,1.349-.651,2.291,2.291,0,0,0,.562-1.562V17.46a2.35,2.35,0,0,0-.562-1.575,1.714,1.714,0,0,0-1.349-.664H6.415a5.8,5.8,0,0,1-4.541-2.178A7.757,7.757,0,0,1-.01,7.8V7.4A7.745,7.745,0,0,1,1.874,2.158,5.834,5.834,0,0,1,6.415-.006H30.7a.145.145,0,0,1,.123.068.221.221,0,0,1,.055.144V4.24a.221.221,0,0,1-.055.144.189.189,0,0,1-.123.068H6.415A1.721,1.721,0,0,0,5.065,5.1,2.337,2.337,0,0,0,4.5,6.692V8.542ZM63.717-.006a5.816,5.816,0,0,1,4.562,2.178,7.791,7.791,0,0,1,1.884,5.274V18.6a7.791,7.791,0,0,1-1.884,5.274,5.816,5.816,0,0,1-4.562,2.178h-19.3a5.819,5.819,0,0,1-4.548-2.178,7.762,7.762,0,0,1-1.89-5.274V7.446a7.762,7.762,0,0,1,1.89-5.274A5.829,5.829,0,0,1,44.416-.006h19.3Zm1.938,6.692a2.35,2.35,0,0,0-.562-1.575,1.737,1.737,0,0,0-1.377-.664h-19.3a1.74,1.74,0,0,0-1.363.664,2.328,2.328,0,0,0-.575,1.575V19.343a2.328,2.328,0,0,0,.575,1.575,1.74,1.74,0,0,0,1.363.664h19.3a1.737,1.737,0,0,0,1.377-.664,2.35,2.35,0,0,0,.562-1.575ZM103.636.227a.284.284,0,0,1,.055-.171.2.2,0,0,1,.144-.068h4.123a.145.145,0,0,1,.123.068.27.27,0,0,1,.055.171v25.6a.221.221,0,0,1-.055.144.189.189,0,0,1-.123.068H99.533a4.763,4.763,0,0,1-4.075-2.527L84.985,5.466a1.917,1.917,0,0,0-1.623-.986H80.478V25.837a.221.221,0,0,1-.055.144.2.2,0,0,1-.144.068H76.156a.145.145,0,0,1-.123-.068.221.221,0,0,1-.055-.144V.227a.284.284,0,0,1,.055-.171.189.189,0,0,1,.123-.068h8.425a4.806,4.806,0,0,1,4.075,2.555L99.129,20.57a1.857,1.857,0,0,0,1.623,1.014h2.884V.227Zm14.829,10.548h24.254a.164.164,0,0,1,.144.068.27.27,0,0,1,.055.171v4.014a.284.284,0,0,1-.055.171.2.2,0,0,1-.144.068H118.465v4.089a2.35,2.35,0,0,0,.562,1.575,1.737,1.737,0,0,0,1.377.664h25.542a.177.177,0,0,1,.144.062.221.221,0,0,1,.055.144v4.014a.284.284,0,0,1-.055.171.2.2,0,0,1-.144.068H120.4a5.816,5.816,0,0,1-4.562-2.178,7.79,7.79,0,0,1-1.884-5.274V7.446a7.79,7.79,0,0,1,1.884-5.274A5.816,5.816,0,0,1,120.4-.006h25.542a.164.164,0,0,1,.144.068.27.27,0,0,1,.055.171V4.247a.221.221,0,0,1-.055.144.2.2,0,0,1-.144.068H120.4a1.737,1.737,0,0,0-1.377.664,2.351,2.351,0,0,0-.562,1.575v4.089Zm65.659-.726a8.031,8.031,0,0,1-1.034,4.075,6.755,6.755,0,0,1-2.747,2.7l.089.205,3.582,8.7a.355.355,0,0,1-.021.205.157.157,0,0,1-.158.1h-4.569a.192.192,0,0,1-.178-.13l-3.466-8.411H156.48V25.83a.221.221,0,0,1-.055.144.2.2,0,0,1-.144.068h-4.123a.145.145,0,0,1-.123-.068.221.221,0,0,1-.055-.144V.227a.284.284,0,0,1,.055-.171.189.189,0,0,1,.123-.068H177.72a5.8,5.8,0,0,1,4.541,2.178,7.791,7.791,0,0,1,1.884,5.274v2.6Zm-27.658,2.973h21.24a1.721,1.721,0,0,0,1.349-.651,2.337,2.337,0,0,0,.562-1.589V6.692a2.291,2.291,0,0,0-.562-1.562,1.741,1.741,0,0,0-1.349-.651h-21.24v8.541ZM209.673,1.973a5.414,5.414,0,0,1,4.1-1.979h8.986a.164.164,0,0,1,.144.068.27.27,0,0,1,.055.171v25.6a.221.221,0,0,1-.055.144.2.2,0,0,1-.144.068h-4.123a.145.145,0,0,1-.123-.068.191.191,0,0,1-.055-.144V4.473h-3.76a1.772,1.772,0,0,0-1.349.651L195.193,25.987a.233.233,0,0,1-.137.055h-5.74a.17.17,0,0,1-.178-.13.223.223,0,0,1,.048-.233L209.68,1.973Zm22.781,6.562a2.337,2.337,0,0,0,.562,1.589,1.741,1.741,0,0,0,1.349.651h19.322a5.8,5.8,0,0,1,4.541,2.178,7.791,7.791,0,0,1,1.884,5.274v.363a7.8,7.8,0,0,1-1.884,5.26,5.782,5.782,0,0,1-4.541,2.185H229.406a.145.145,0,0,1-.123-.068.235.235,0,0,1-.055-.171V21.782a.284.284,0,0,1,.055-.171.156.156,0,0,1,.123-.062h24.281a1.721,1.721,0,0,0,1.349-.651,2.291,2.291,0,0,0,.562-1.562V17.46a2.35,2.35,0,0,0-.562-1.575,1.714,1.714,0,0,0-1.349-.664H234.365a5.8,5.8,0,0,1-4.541-2.178A7.757,7.757,0,0,1,227.94,7.8V7.4a7.745,7.745,0,0,1,1.884-5.247A5.8,5.8,0,0,1,234.365-.02h24.281a.145.145,0,0,1,.123.068.221.221,0,0,1,.055.144V4.227a.221.221,0,0,1-.055.144.189.189,0,0,1-.123.068H234.365a1.721,1.721,0,0,0-1.349.651,2.337,2.337,0,0,0-.562,1.589V8.528Z" transform="translate(0.01 0.02)" fill="#ffd831"/>
</svg>
