<?xml version="1.0" encoding="UTF-8"?>
<svg id="Layer_2" data-name="Layer 2" xmlns="http://www.w3.org/2000/svg" viewBox="0 0 143.27 143.27">
  <defs>
    <style>
      .cls-1 {
        stroke-width: 0px;
      }
    </style>
  </defs>
  <g id="Layer_1-2" data-name="Layer 1">
    <path class="cls-1" d="m143.02,65.57c-.19-2.32-.5-4.61-.91-6.87-.79-4.32-1.96-8.51-3.49-12.52-.2-.51-.69-.85-1.24-.85H21.53c-.68,0-1.1-.72-.78-1.32,9.81-18.03,28.92-30.27,50.89-30.27,15.52,0,29.61,6.11,40.01,16.06.52.5,1.34.48,1.85-.03l7.85-7.85c.52-.52.52-1.38,0-1.89C108.45,7.63,90.94,0,71.64,0,41.36,0,15.47,18.78,4.98,45.33c-1.49,3.77-2.67,7.71-3.5,11.76-.17.83.46,1.61,1.3,1.61h125.29c.4,1.75.72,3.54.96,5.35.1.8-.51,1.52-1.32,1.52H.26c-.17,2-.26,4.02-.26,6.07,0,2.47.12,4.9.37,7.3.2,2.02.5,4.01.87,5.98.81,4.32,2.01,8.51,3.56,12.52.2.51.69.85,1.24.85h117c-9.64,18.56-29.04,31.24-51.4,31.24-15.52,0-29.62-6.11-40.01-16.06-.52-.5-1.34-.48-1.85.03l-7.84,7.84c-.52.52-.52,1.38,0,1.89,12.88,12.41,30.4,20.04,49.69,20.04,30.14,0,55.94-18.62,66.51-44.98,1.51-3.77,2.71-7.7,3.57-11.76.18-.83-.45-1.61-1.3-1.61H15.28c-.34-1.46-.63-2.94-.86-4.44-.12-.81.5-1.54,1.32-1.54h125.96c.69,0,1.27-.52,1.33-1.21.17-2.01.26-4.04.26-6.1s-.09-4.07-.26-6.07Z"/>
  </g>
</svg>