<svg xmlns="http://www.w3.org/2000/svg" width="17.846" height="18.158" viewBox="0 0 17.846 18.158">
  <g id="products-icon" transform="translate(-1.868 -0.974)">
    <path id="Path_4" data-name="Path 4" d="M16,15.611l1.611,1.611L20.832,14" transform="translate(-2.531 -2.336)" fill="none" stroke="#94a3b8" stroke-linecap="round" stroke-linejoin="round" stroke-width="2"/>
    <path id="Path_5" data-name="Path 5" d="M17.5,8.443V6.832a1.611,1.611,0,0,0-.805-1.393L11.053,2.218a1.611,1.611,0,0,0-1.611,0L3.805,5.439A1.611,1.611,0,0,0,3,6.832v6.442a1.611,1.611,0,0,0,.805,1.393l5.637,3.221a1.611,1.611,0,0,0,1.611,0l1.611-.918" transform="translate(0)" fill="none" stroke="#94a3b8" stroke-linecap="round" stroke-linejoin="round" stroke-width="2"/>
    <path id="Path_6" data-name="Path 6" d="M7.5,4.27l7.248,4.147" transform="translate(-0.876 -0.442)" fill="none" stroke="#94a3b8" stroke-linecap="round" stroke-linejoin="round" stroke-width="2"/>
    <path id="Path_7" data-name="Path 7" d="M3.29,7,10.3,11.026,17.318,7" transform="translate(-0.056 -0.973)" fill="none" stroke="#94a3b8" stroke-linecap="round" stroke-linejoin="round" stroke-width="2"/>
    <line id="Line_1" data-name="Line 1" y1="8.053" transform="translate(10.248 10.053)" fill="none" stroke="#94a3b8" stroke-linecap="round" stroke-linejoin="round" stroke-width="2"/>
  </g>
</svg>
