<svg xmlns="http://www.w3.org/2000/svg" width="17.955" height="18.9" viewBox="0 0 17.955 18.9">
  <path id="sales-icon" d="M11.505,2c-4.2,0-8,2.423-7.54,8.094-.007.137-.02.27-.02.412,0,.182.045.41.059.611a2.174,2.174,0,0,0-1,1.752A2.265,2.265,0,0,0,4.855,15.02a11.308,11.308,0,0,0,2.4,3.9A6.05,6.05,0,0,0,11.505,20.9c.466,0,1.137-.076,1.772-.148s1.185-.144,1.185-.144l-.244-1.873s-.537.069-1.154.138-1.364.137-1.56.137A4.169,4.169,0,0,1,8.6,17.589a9.756,9.756,0,0,1-2.152-3.61l-.22-.639H5.363a.568.568,0,0,1-.473-.473c0-.211.125-.337.393-.426l.831-.277L5.9,11.315a2.883,2.883,0,0,1-.066-.81,6.842,6.842,0,0,1,.09-1.133C7.007,8.539,7.878,9.239,9.237,7.1c1.423,2.588,5.37.971,7.719,1.693a6.041,6.041,0,0,1,.22,1.709V15.23h.666c-.051.25-.1.457-.153.624a1.919,1.919,0,0,1-.129.321H13.314a1.421,1.421,0,1,0-1.082,1.866.945.945,0,0,0,.218.024h5.67a.945.945,0,0,0,.633-.242,2.648,2.648,0,0,0,.329-.428A4.557,4.557,0,0,0,19.5,16.4a10.448,10.448,0,0,0,.281-1.314,1.894,1.894,0,0,0,1.178-1.748V11.45a1.9,1.9,0,0,0-1.89-1.89H19.06C19.2,4.265,15.575,2,11.505,2ZM9.143,10.505a1.418,1.418,0,1,0,1.418,1.418,1.418,1.418,0,0,0-1.418-1.418Zm4.725,0a1.418,1.418,0,1,0,1.418,1.418,1.418,1.418,0,0,0-1.418-1.418Z" transform="translate(-3 -2)" fill="#94a3b8"/>
</svg>
