<svg xmlns="http://www.w3.org/2000/svg" width="15.578" height="17.043" viewBox="0 0 15.578 17.043">
  <g id="settings-icon" transform="translate(-1.976 -1)">
    <path id="Vector" d="M8.012.441A1.5,1.5,0,0,1,8.453,1.5V1.64a1.5,1.5,0,0,0,.752,1.3l.323.188a1.5,1.5,0,0,0,1.5,0l.113-.06a1.5,1.5,0,0,1,2.053.549l.165.286a1.5,1.5,0,0,1-.549,2.053l-.113.068a1.5,1.5,0,0,0-.752,1.309V7.71A1.5,1.5,0,0,0,12.7,9.019l.113.06a1.5,1.5,0,0,1,.549,2.053l-.165.293a1.5,1.5,0,0,1-2.053.549l-.113-.06a1.5,1.5,0,0,0-1.5,0L9.2,12.1a1.5,1.5,0,0,0-.752,1.3v.135a1.5,1.5,0,0,1-1.5,1.5H6.617a1.5,1.5,0,0,1-1.5-1.5V13.4a1.5,1.5,0,0,0-.752-1.3l-.323-.188a1.5,1.5,0,0,0-1.5,0l-.113.06a1.5,1.5,0,0,1-2.053-.549L.2,11.14A1.5,1.5,0,0,1,.75,9.086l.113-.068A1.5,1.5,0,0,0,1.615,7.71V7.326A1.5,1.5,0,0,0,.863,6.032L.75,5.957A1.5,1.5,0,0,1,.2,3.9l.165-.286A1.5,1.5,0,0,1,2.42,3.069l.113.06a1.5,1.5,0,0,0,1.5,0l.323-.188a1.5,1.5,0,0,0,.752-1.3V1.5A1.5,1.5,0,0,1,6.617,0h.331A1.5,1.5,0,0,1,8.012.441Z" transform="translate(2.982 2)" fill="none" stroke="#94a3b8" stroke-linecap="round" stroke-linejoin="round" stroke-width="2"/>
    <path id="Vector-2" data-name="Vector" d="M4.513,2.257A2.257,2.257,0,1,1,2.257,0,2.257,2.257,0,0,1,4.513,2.257Z" transform="translate(7.509 7.265)" fill="none" stroke="#94a3b8" stroke-linecap="round" stroke-linejoin="round" stroke-width="2"/>
  </g>
</svg>
