<svg xmlns="http://www.w3.org/2000/svg" width="14.418" height="14.419" viewBox="0 0 14.418 14.419">
  <path id="suppliers-icon" d="M11.977,2.006a2.158,2.158,0,0,0-1.53.63L8.855,4.228l-.572-.572-1.02,1.02L8.556,5.969,7.263,7.263l1.02,1.02L9.577,6.989l1.865,1.865-1.293,1.293,1.02,1.02,1.293-1.293,1.293,1.293,1.02-1.02L14.2,9.576,15.8,7.984a2.175,2.175,0,0,0,0-3.06l-.634-.634,1.057-1.057L15.2,2.213,14.142,3.27l-.634-.634A2.158,2.158,0,0,0,11.977,2.006Zm0,1.434a.719.719,0,0,1,.51.216l2.288,2.288a.71.71,0,0,1,0,1.02L13.184,8.556,9.875,5.248l1.592-1.592A.719.719,0,0,1,11.977,3.44Zm-7.3,3.823-1.02,1.02.572.572L2.636,10.447a2.175,2.175,0,0,0,0,3.06l.634.634L2.213,15.2l1.02,1.02L4.29,15.162l.634.634a2.175,2.175,0,0,0,3.06,0L9.577,14.2l.572.572,1.02-1.02Zm.572,2.612,3.308,3.308L6.964,14.775a.71.71,0,0,1-1.02,0L3.656,12.487a.711.711,0,0,1,0-1.02Z" transform="translate(-2.007 -2.006)" fill="#94a3b8"/>
</svg>
