<svg xmlns="http://www.w3.org/2000/svg" width="17.049" height="21.535" viewBox="0 0 17.049 21.535">
  <g id="timeline-icon" transform="translate(-27.036 -168)">
    <path id="icons8_Move_up_row_3" d="M8.094,6A2.108,2.108,0,0,0,6,8.094V9.888a2.108,2.108,0,0,0,2.094,2.094h7.178a2.108,2.108,0,0,0,2.094-2.094V8.094A2.108,2.108,0,0,0,15.272,6Zm0,1.795h7.178a.286.286,0,0,1,.3.3V9.888a.286.286,0,0,1-.3.3H8.094a.286.286,0,0,1-.3-.3V8.094A.286.286,0,0,1,8.094,7.795Z" transform="translate(21.036 169.777)" fill="#94a3b8"/>
    <path id="icons8_Move_up_row_3-2" data-name="icons8_Move_up_row_3" d="M8.094,6A2.108,2.108,0,0,0,6,8.094V9.888a2.108,2.108,0,0,0,2.094,2.094h7.178a2.108,2.108,0,0,0,2.094-2.094V8.094A2.108,2.108,0,0,0,15.272,6Zm0,1.795h7.178a.286.286,0,0,1,.3.3V9.888a.286.286,0,0,1-.3.3H8.094a.286.286,0,0,1-.3-.3V8.094A.286.286,0,0,1,8.094,7.795Z" transform="translate(26.719 162)" fill="#94a3b8"/>
    <path id="icons8_Move_up_row_3-3" data-name="icons8_Move_up_row_3" d="M8.094,6A2.108,2.108,0,0,0,6,8.094V9.888a2.108,2.108,0,0,0,2.094,2.094h7.178a2.108,2.108,0,0,0,2.094-2.094V8.094A2.108,2.108,0,0,0,15.272,6Zm0,1.795h7.178a.286.286,0,0,1,.3.3V9.888a.286.286,0,0,1-.3.3H8.094a.286.286,0,0,1-.3-.3V8.094A.286.286,0,0,1,8.094,7.795Z" transform="translate(24.625 177.553)" fill="#94a3b8"/>
  </g>
</svg>
